<svg width="48" height="48" viewBox="0 0 48 48" fill="none" xmlns="http://www.w3.org/2000/svg">
<path d="M24 0.666504C11.12 0.666504 0.666687 11.1198 0.666687 23.9998C0.666687 36.8798 11.12 47.3332 24 47.3332C36.88 47.3332 47.3334 36.8798 47.3334 23.9998C47.3334 11.1198 36.88 0.666504 24 0.666504ZM24 7.6665C27.8734 7.6665 31 10.7932 31 14.6665C31 18.5398 27.8734 21.6665 24 21.6665C20.1267 21.6665 17 18.5398 17 14.6665C17 10.7932 20.1267 7.6665 24 7.6665ZM24 40.7998C18.1667 40.7998 13.01 37.8132 10 33.2865C10.07 28.6432 19.3334 26.0998 24 26.0998C28.6434 26.0998 37.93 28.6432 38 33.2865C34.99 37.8132 29.8334 40.7998 24 40.7998Z" fill="#BDBDBD"/>
</svg>
