<svg width="28" height="14" viewBox="0 0 28 14" fill="none" xmlns="http://www.w3.org/2000/svg">
<path d="M20.6666 0.333496H15.3333V3.00016H20.6666C22.8666 3.00016 24.6666 4.80016 24.6666 7.00016C24.6666 9.20016 22.8666 11.0002 20.6666 11.0002H15.3333V13.6668H20.6666C24.3466 13.6668 27.3333 10.6802 27.3333 7.00016C27.3333 3.32016 24.3466 0.333496 20.6666 0.333496ZM12.6666 11.0002H7.33329C5.13329 11.0002 3.33329 9.20016 3.33329 7.00016C3.33329 4.80016 5.13329 3.00016 7.33329 3.00016H12.6666V0.333496H7.33329C3.65329 0.333496 0.666626 3.32016 0.666626 7.00016C0.666626 10.6802 3.65329 13.6668 7.33329 13.6668H12.6666V11.0002ZM8.66663 5.66683H19.3333V8.3335H8.66663V5.66683Z" fill="#FFD600"/>
</svg>
